<?xml version="1.0" standalone="no"?>
<!DOCTYPE svg PUBLIC "-//W3C//DTD SVG 1.0//EN" "http://www.w3.org/TR/2001/REC-SVG-20010904/DTD/svg10.dtd">
<svg xmlns="http://www.w3.org/2000/svg" xmlns:xlink="http://www.w3.org/1999/xlink" id="body_1" width="41" height="31">

<g transform="matrix(1.2916667 0 0 1.2916667 5 -0)">
    <path d="M22 8L22 13.81C 21.39 13.46 20.72 13.22 20 13.09L20 13.09L20 8L4 8L4 18L13.09 18C 13.04 18.33 13 18.66 13 19C 13 19.34 13.04 19.67 13.09 20L13.09 20L4 20C 2.9 20 2 19.11 2 18L2 18L2 6C 2 4.89 2.89 4 4 4L4 4L10 4L12 6L20 6C 21.1 6 22 6.89 22 8zM20 16L18 16L18 20L16 20L19 23L22 20L20 20L20 16z" stroke="none" fill="#000000" fill-rule="nonzero" />
</g>
</svg>